<svg version="1.1" id="Layer_1" xmlns="http://www.w3.org/2000/svg" xmlns:xlink="http://www.w3.org/1999/xlink" x="0px" y="0px"
	 width="100%" viewBox="0 0 1024 1024" enable-background="new 0 0 1024 1024" xml:space="preserve">
<path fill="#000000" opacity="1.000000" stroke="none" 
	d="
M484.340576,537.304199 
	C475.161377,543.124084 466.572571,549.142090 458.082489,555.323914 
	C454.602203,557.857971 454.063660,560.275757 455.572021,564.164612 
	C464.661591,587.599304 473.474182,611.141479 482.592834,634.564636 
	C484.367371,639.122864 484.319397,643.274292 482.328522,647.572327 
	C469.333282,675.627747 439.156464,685.667969 412.004608,669.679382 
	C401.531311,663.512146 395.245483,652.896362 394.531525,641.200867 
	C393.052277,616.968628 398.975555,594.322571 413.234406,574.053711 
	C428.491821,552.365356 449.056427,537.330444 471.693726,524.302795 
	C493.068848,512.001587 515.720642,502.070984 536.537598,488.773651 
	C552.579773,478.526367 568.259521,467.865448 580.524414,452.977936 
	C583.431641,449.449066 587.077759,450.376465 590.613831,451.739380 
	C610.965881,459.583618 631.662415,466.517029 651.732788,475.114471 
	C659.841003,478.587708 668.146851,481.632690 676.479797,484.536713 
	C682.145264,486.511169 684.903992,490.207458 684.867126,496.086578 
	C684.742798,515.908203 683.973022,535.689087 681.638672,555.398376 
	C679.229248,575.742371 675.621826,595.838684 669.533875,615.419006 
	C660.520447,644.408264 646.187256,670.586243 626.856079,693.944580 
	C600.125366,726.243835 566.728394,749.745422 528.937317,767.368042 
	C523.368225,769.964966 518.183838,769.770874 512.656311,767.209778 
	C487.457428,755.534302 466.938110,737.553162 446.996796,718.785645 
	C442.753418,714.792053 438.595123,710.687805 435.053192,706.021729 
	C431.647430,701.534973 432.257690,699.770203 437.755310,698.727844 
	C458.948395,694.709778 474.344421,682.715698 484.936646,664.268127 
	C488.545044,657.983643 490.559906,651.013306 490.612305,643.785217 
	C490.862305,609.291626 490.910248,574.796509 490.970184,540.301758 
	C490.979706,534.833496 489.976074,534.400024 484.340576,537.304199 
M625.300293,576.279724 
	C626.870911,579.748535 627.733459,583.551392 630.335449,586.533936 
	C631.403809,587.758606 631.231567,589.308716 630.993347,590.829529 
	C628.691223,605.525635 615.193176,620.619995 600.452637,623.929810 
	C579.936768,628.536499 562.583801,622.778931 548.984314,606.562317 
	C545.273499,602.137390 543.087036,596.935425 542.471802,591.125061 
	C542.272644,589.244934 542.182190,587.310425 543.614380,585.951355 
	C546.796997,582.931335 547.821411,578.817932 549.376343,575.006897 
	C554.722351,561.904297 559.953491,548.754395 565.162964,535.596558 
	C567.957031,528.539429 571.189941,521.629456 573.355835,513.451538 
	C563.118835,513.363770 553.514404,512.658936 543.975159,513.790649 
	C539.903137,514.273743 537.301819,517.121338 537.306763,521.814392 
	C537.355225,568.132690 537.158264,614.452332 537.480164,660.768494 
	C537.547974,670.528687 541.878479,679.050720 551.002197,683.778320 
	C559.589111,688.227783 567.737976,685.757812 575.561401,680.956055 
	C583.075073,676.344421 588.959412,669.928711 594.772522,663.574768 
	C613.643005,642.948608 628.935608,620.147522 635.923157,592.577209 
	C641.996582,568.613525 641.961609,544.182495 641.778137,519.711609 
	C641.741211,514.793213 639.591553,513.248413 635.137939,513.288635 
	C625.975037,513.371399 616.810608,513.278442 607.647095,513.313721 
	C601.176880,513.338684 600.734192,513.905701 603.049072,519.814270 
	C610.335205,538.412048 617.701416,556.978516 625.300293,576.279724 
M612.972107,584.205994 
	C613.963684,582.850891 613.076233,581.622864 612.614990,580.444641 
	C604.969177,560.912598 597.292969,541.392456 589.597961,521.879761 
	C589.136108,520.708679 588.883118,519.226868 586.868225,519.165588 
	C585.532776,520.518250 584.791748,522.316467 584.084167,524.187500 
	C581.198975,531.816345 578.287964,539.436157 575.301880,547.025879 
	C570.975952,558.021301 565.942444,568.735046 562.266846,579.991516 
	C561.372803,582.729675 560.833862,585.054749 564.909607,585.008789 
	C580.719421,584.830566 596.536499,585.593628 612.972107,584.205994 
M448.681091,579.803162 
	C447.699890,577.640198 447.657166,574.900757 444.081787,573.058289 
	C436.954254,593.464478 429.952271,613.511292 422.668427,634.365051 
	C438.575104,634.365051 453.349670,634.365051 468.805237,634.365051 
	C462.941345,615.635254 455.574829,598.208740 448.681091,579.803162 
M418.214233,609.760803 
	C421.019867,602.090942 424.593414,594.672241 426.534058,585.769043 
	C416.763000,595.694458 398.582092,628.398438 398.696747,634.924744 
	C406.349030,636.963196 409.459045,632.622253 411.545807,626.160217 
	C413.275574,620.803467 415.768372,615.693115 418.214233,609.760803 
z"/>
<path fill="#000000" opacity="1.000000" stroke="none" 
	d="
M537.912903,308.072632 
	C556.101868,330.658691 574.077698,352.954132 591.988953,375.301300 
	C594.796875,378.804565 597.477173,382.435394 599.919373,386.199982 
	C602.872192,390.751526 600.686646,395.058380 595.256714,395.232330 
	C587.768005,395.472290 580.265991,395.376343 572.770813,395.308594 
	C568.982666,395.274384 566.565979,396.821869 566.415527,400.716400 
	C565.052063,436.001892 546.420898,460.908844 518.379700,479.856934 
	C500.451202,491.971649 482.015015,503.332672 463.889160,515.158386 
	C439.415192,531.125793 417.022217,549.231873 402.341034,575.278259 
	C394.259644,589.615845 388.072845,604.561768 386.285461,621.080933 
	C386.215027,621.731812 386.071716,622.401917 385.810089,622.995911 
	C385.623962,623.418579 385.181732,623.728516 384.672638,624.287659 
	C380.909363,622.810852 379.543365,619.237915 377.942230,616.148376 
	C370.134521,601.082703 366.142731,584.770935 362.699738,568.290710 
	C358.442383,547.912476 358.679413,527.278748 359.027588,506.630066 
	C359.118744,501.226654 361.572266,497.749878 366.514069,495.359894 
	C393.192108,482.457611 420.214661,470.236450 446.287659,456.124878 
	C458.735352,449.387787 470.825897,442.034851 479.884491,430.646362 
	C487.106293,421.567017 490.440735,411.134064 491.498718,399.844971 
	C491.873047,395.850586 488.629089,395.411865 485.707642,395.374451 
	C478.046265,395.276306 470.382721,395.335815 462.720093,395.353973 
	C459.497711,395.361603 456.096649,395.438843 454.388550,392.101166 
	C452.553375,388.515198 454.774414,385.723602 456.966156,383.130615 
	C478.460144,357.702118 499.932190,332.254852 521.497314,306.886810 
	C526.858582,300.580139 531.175110,300.943176 537.912903,308.072632 
z"/>
<path fill="#000000" opacity="1.000000" stroke="none" 
	d="
M249.484818,350.428955 
	C259.065582,342.927124 269.630737,338.845978 281.356659,337.656189 
	C284.049133,337.382965 286.772461,337.116516 286.966827,333.377747 
	C287.031158,332.140717 287.943848,331.167694 289.336487,331.329376 
	C290.410553,331.454071 291.192169,332.323608 291.211243,333.377655 
	C291.273376,336.808044 293.661041,337.243866 296.264252,337.630798 
	C327.232971,342.233826 347.286316,362.046082 352.091522,392.982513 
	C352.551117,395.941315 352.861816,398.146851 356.582703,397.984314 
	C358.144775,397.916077 359.629028,398.790619 359.519928,400.677948 
	C359.410553,402.570312 357.799042,403.060272 356.265442,403.107147 
	C353.682953,403.186005 352.582550,404.124878 352.238007,406.931610 
	C348.323669,438.817871 327.381592,460.019135 295.743317,464.344635 
	C293.511963,464.649689 291.390533,465.036865 291.225616,467.966125 
	C291.155518,469.211029 290.619202,470.329712 289.214813,470.420563 
	C287.495544,470.531830 286.915344,469.248230 286.792816,467.835968 
	C286.538940,464.910370 284.412415,464.629059 282.182831,464.312897 
	C252.177429,460.057648 231.375168,440.300903 225.832184,410.835205 
	C225.158646,407.254822 225.608109,402.928192 220.127380,402.542389 
	C219.149750,402.473602 218.575729,401.358307 218.718735,400.207764 
	C218.866425,399.019318 219.772934,398.372040 220.746277,398.314301 
	C224.401215,398.097504 225.279160,395.775452 225.668732,392.653717 
	C227.812225,375.477753 235.575256,361.410553 249.484818,350.428955 
M305.904114,443.535004 
	C323.648926,435.634857 335.684143,418.920776 333.665802,404.454224 
	C326.153625,405.430511 318.617950,406.334534 311.109711,407.426941 
	C308.517334,407.804108 307.889221,409.499054 309.115997,411.825043 
	C311.368164,416.095093 313.688538,420.331329 315.834717,424.654053 
	C316.584930,426.165131 318.217377,427.628815 316.618011,430.097076 
	C309.791443,426.965271 304.224426,421.488800 296.944519,418.564606 
	C295.135925,424.009583 294.722839,429.286713 293.944702,434.501831 
	C292.145477,446.560303 289.605164,447.916046 304.693115,443.960510 
	C304.853363,443.918457 305.005615,443.845886 305.904114,443.535004 
M295.622559,379.552704 
	C296.238037,380.673859 295.884003,382.247070 297.426178,383.179779 
	C304.174042,380.365753 309.226990,374.126770 317.559204,371.792633 
	C315.391968,380.059509 309.908264,385.659363 307.694000,393.454254 
	C314.862030,394.348969 321.560425,395.132202 328.242645,396.035461 
	C333.762268,396.781616 334.562469,396.067841 333.683594,390.795959 
	C330.879486,373.975494 313.456543,357.362823 296.625488,355.426849 
	C293.350922,355.050171 292.025452,356.125854 292.632446,359.637543 
	C293.730682,365.991089 294.528503,372.396576 295.622559,379.552704 
M260.776611,427.920166 
	C263.603394,421.309113 267.894714,415.360779 270.536957,407.861206 
	C262.913300,406.727325 256.061920,405.760468 249.229309,404.675385 
	C243.890472,403.827515 242.744125,404.859436 243.923813,410.082428 
	C248.047638,428.340515 259.687897,439.561890 277.190857,445.054108 
	C283.946136,447.173828 284.957886,446.127869 284.067291,439.005737 
	C283.943787,438.018097 284.037354,436.994324 283.839142,436.026428 
	C282.664185,430.288818 283.291382,424.201447 280.806976,418.400543 
	C274.776550,421.138489 270.242493,425.434937 264.888000,428.386047 
	C263.685669,429.048767 262.191406,431.763885 260.776611,427.920166 
M284.827026,359.598419 
	C284.954224,356.954956 284.675842,355.071869 281.040039,355.606750 
	C263.596436,358.172943 247.965271,372.657898 244.316605,390.023407 
	C243.899612,392.008087 242.571777,394.119415 244.461746,396.542816 
	C252.761597,395.499756 261.331451,395.274628 270.345947,393.228455 
	C266.849487,386.017334 263.531158,379.173584 260.212830,372.329865 
	C260.615326,372.038483 261.017822,371.747131 261.420288,371.455780 
	C268.392242,374.514343 273.827698,380.356415 281.192322,383.615448 
	C283.410645,375.625885 283.249908,367.896759 284.827026,359.598419 
M297.084198,397.621063 
	C294.530792,391.521637 286.988678,391.090088 283.740540,393.979675 
	C279.691345,397.581848 279.140106,402.858612 282.949493,406.716614 
	C285.626984,409.428284 288.896362,410.459991 292.504486,408.688507 
	C296.819366,406.570160 298.292664,402.974762 297.084198,397.621063 
M238.358246,397.323730 
	C239.862061,395.941132 239.289993,394.911072 237.633667,394.542480 
	C235.779510,394.129883 234.000046,394.319214 233.848663,396.938477 
	C235.151321,397.996979 236.470154,397.641449 238.358246,397.323730 
M289.321899,432.692474 
	C290.082275,426.954987 289.539642,421.243164 289.137787,415.534332 
	C289.137787,421.106293 289.137787,426.678253 289.321899,432.692474 
M243.694366,430.528595 
	C245.404526,429.903717 246.925842,429.156647 246.275101,426.822388 
	C242.011459,427.726227 242.011459,427.726227 243.694366,430.528595 
M294.251495,349.587830 
	C293.850739,348.251526 295.835236,346.051697 292.968475,345.651703 
	C291.748962,345.481567 291.286285,346.530884 291.355957,347.670197 
	C291.456299,349.311066 291.270721,351.313782 294.251495,349.587830 
M331.642365,427.790070 
	C331.894226,429.647247 333.147614,430.463440 334.782562,430.928528 
	C336.253967,427.531738 336.012665,427.239899 331.642365,427.790070 
M255.614044,441.358765 
	C254.973419,442.272461 253.776749,443.184540 255.163879,444.300262 
	C255.918396,444.907135 256.777802,444.410767 257.371460,443.786163 
	C258.171936,442.943909 259.170258,441.986481 258.431488,440.741821 
	C257.689880,439.492371 256.784851,440.165070 255.614044,441.358765 
M291.331421,453.351837 
	C291.441650,454.633148 291.853790,455.699158 293.417114,455.335754 
	C294.434631,455.099213 294.454987,454.168762 294.241943,453.339081 
	C293.971863,452.287384 294.062897,450.787903 292.507996,450.797272 
	C291.568634,450.802917 291.444702,451.877441 291.331421,453.351837 
z"/>
<path fill="#000000" opacity="1.000000" stroke="none" 
	d="
M744.883667,434.839325 
	C740.499268,436.983246 736.395142,438.833435 732.474060,441.013031 
	C728.794495,443.058289 725.451294,443.289398 721.683411,441.060364 
	C711.502319,435.037445 700.458435,431.346466 688.640198,430.633545 
	C683.028137,430.295013 677.348022,430.960907 671.705688,431.291382 
	C667.639221,431.529572 665.968201,429.697723 665.978943,425.691681 
	C666.041748,402.198883 666.070862,378.705719 665.984558,355.213135 
	C665.968994,350.976959 668.180481,349.566620 671.883423,348.622437 
	C689.767761,344.062225 706.241333,347.463928 721.497314,357.306213 
	C725.306641,359.763733 728.133423,359.546692 731.865417,357.145538 
	C746.978271,347.421997 763.267700,344.045441 781.004883,348.572968 
	C785.364136,349.685760 787.462769,351.268341 787.412292,356.191040 
	C787.178162,379.015381 787.320740,401.843414 787.292236,424.670074 
	C787.284729,430.645935 786.589233,431.669525 780.669189,431.144012 
	C768.590027,430.071686 756.738037,430.343414 744.883667,434.839325 
M707.433655,419.824890 
	C711.612000,421.246124 715.790344,422.667358 720.648132,424.319702 
	C720.648132,406.175720 720.648315,388.728668 720.647827,371.281647 
	C720.647766,369.833405 720.014893,368.684875 718.830627,367.914001 
	C708.216003,361.004791 696.789795,357.041840 683.924377,358.475067 
	C680.852051,358.817322 679.301331,360.339172 679.324585,363.740326 
	C679.434937,379.885834 679.440369,396.033325 679.293579,412.178406 
	C679.258911,415.989197 680.882385,416.861664 684.374023,417.061707 
	C691.829285,417.488800 699.358459,417.566040 707.433655,419.824890 
M773.795776,375.503326 
	C773.795349,371.841736 773.554382,368.160248 773.854919,364.523529 
	C774.236145,359.910339 772.154663,358.327576 767.813721,358.157043 
	C757.028870,357.733398 747.075806,360.220642 737.743042,365.645813 
	C734.352722,367.616638 732.855530,370.006439 732.908203,374.047882 
	C733.105652,389.190796 732.965759,404.337982 732.994934,419.483490 
	C732.997681,420.898376 732.527527,422.497803 734.270752,423.920959 
	C739.852112,421.971008 745.499939,419.403473 751.633545,418.704529 
	C757.906799,417.989685 764.197021,417.387329 770.493896,416.929596 
	C773.983765,416.675873 773.793884,414.318298 773.795349,411.952972 
	C773.802429,400.136047 773.796143,388.319122 773.795776,375.503326 
z"/>
<path fill="#000000" opacity="1.000000" stroke="none" 
	d="
M288.267090,395.082581 
	C291.882294,395.222717 293.853394,396.855896 294.272827,400.117279 
	C294.626801,402.870117 293.580536,405.026031 291.017273,406.144470 
	C288.379547,407.295410 286.075226,406.337708 284.493988,404.162140 
	C282.890442,401.955872 283.055634,399.511444 284.648682,397.271393 
	C285.433502,396.167786 286.573486,395.496490 288.267090,395.082581 
z"/>
</svg>